<?xml version="1.0" standalone="no"?>
<!DOCTYPE svg PUBLIC "-//W3C//DTD SVG 20010904//EN"
 "http://www.w3.org/TR/2001/REC-SVG-20010904/DTD/svg10.dtd">
<svg version="1.0" xmlns="http://www.w3.org/2000/svg"
 width="440.000000pt" height="440.000000pt" viewBox="0 0 440.000000 440.000000"
 preserveAspectRatio="xMidYMid meet">

<g transform="translate(0.000000,440.000000) scale(0.100000,-0.100000)"
fill="#000000" stroke="none">
<path d="M0 2200 l0 -2200 2200 0 2200 0 0 2200 0 2200 -2200 0 -2200 0 0
-2200z m1110 464 l0 -176 28 -28 c54 -53 183 -49 220 7 14 23 18 56 20 200 l4
173 51 0 52 0 -3 -181 c-2 -167 -4 -185 -25 -223 -32 -59 -91 -88 -187 -94
-142 -8 -233 39 -259 135 -6 21 -11 111 -11 201 l0 162 55 0 55 0 0 -176z
m921 166 c52 -15 81 -50 86 -107 4 -39 0 -55 -19 -82 l-23 -34 33 -33 c28 -28
32 -39 32 -83 0 -66 -20 -104 -64 -125 -29 -14 -64 -16 -213 -14 l-178 3 -3
229 c-2 160 1 233 9 242 14 17 282 20 340 4z m729 6 c0 -2 -7 -20 -15 -40
l-15 -36 -145 0 -145 0 0 -62 0 -63 113 0 c61 0 115 -1 119 -3 4 -1 0 -18 -9
-37 l-17 -35 -77 0 c-115 0 -126 -7 -131 -74 l-3 -56 163 0 c89 0 162 -3 162
-7 -1 -5 -9 -24 -18 -43 l-17 -35 -190 4 c-105 2 -193 5 -197 8 -14 8 -10 457
4 471 9 9 70 12 215 12 112 0 203 -2 203 -4z m558 -20 c96 -51 96 -217 0 -264
l-26 -12 54 -93 c29 -50 54 -95 54 -99 0 -5 -24 -8 -54 -8 l-55 0 -51 95 -51
95 -63 0 c-35 0 -67 -5 -74 -12 -7 -7 -12 -44 -12 -96 l0 -83 -52 3 -53 3 -3
235 c-2 215 -1 236 15 248 28 21 327 12 371 -12z m-1928 -875 c0 -5 3 -17 6
-26 6 -14 -9 -16 -147 -14 l-154 1 -3 -86 -3 -86 135 0 c129 0 134 -1 129 -20
-5 -19 -14 -20 -134 -20 l-129 0 0 -95 0 -95 160 0 c153 0 160 -1 160 -20 0
-19 -7 -20 -182 -20 l-183 0 3 245 3 245 169 0 c97 0 170 -4 170 -9z m1900 -2
c44 -9 50 -14 50 -36 0 -20 -4 -24 -17 -18 -86 35 -191 30 -234 -11 -56 -54
-24 -111 77 -139 150 -41 183 -65 191 -137 10 -98 -59 -154 -187 -152 -94 2
-154 22 -158 54 -3 20 -1 22 20 15 93 -29 135 -36 174 -30 109 16 148 127 60
169 -17 8 -58 22 -91 31 -78 23 -132 50 -145 74 -5 11 -10 39 -10 63 0 102
113 151 270 117z m-1239 -239 c60 -129 108 -238 109 -242 0 -5 -11 -8 -24 -8
-20 0 -29 11 -52 65 l-28 65 -147 0 -146 0 -27 -59 c-20 -45 -32 -60 -51 -63
-14 -3 -25 -3 -25 0 0 3 39 89 86 191 48 102 98 210 111 239 22 50 25 53 55
50 31 -3 34 -8 139 -238z m709 220 c0 -19 -7 -20 -90 -20 l-90 0 -2 -222 c-3
-223 -3 -223 -25 -226 l-23 -3 0 225 0 226 -90 0 c-83 0 -90 1 -90 20 0 19 7
20 205 20 198 0 205 -1 205 -20z"/>
<path d="M1782 2700 l3 -61 80 -4 c127 -7 172 20 146 88 -13 33 -28 37 -137
37 l-95 0 3 -60z"/>
<path d="M1796 2544 c-10 -10 -16 -33 -16 -65 l0 -49 114 0 c127 0 146 8 146
61 0 55 -28 69 -134 69 -73 0 -98 -4 -110 -16z"/>
<path d="M3040 2685 l0 -75 103 0 c128 0 139 7 135 75 -4 65 -23 75 -145 75
l-93 0 0 -75z"/>
<path d="M1893 1878 c-6 -18 -33 -84 -61 -145 l-51 -113 124 0 c74 0 125 4
125 10 0 5 -25 65 -55 134 -30 68 -55 129 -55 135 0 23 -17 10 -27 -21z"/>
</g>
</svg>
